<?xml version="1.0" encoding="UTF-8" standalone="no"?>
<!-- Created with Inkscape (http://www.inkscape.org/) -->

<svg
   xmlns:dc="http://purl.org/dc/elements/1.1/"
   xmlns:cc="http://creativecommons.org/ns#"
   xmlns:rdf="http://www.w3.org/1999/02/22-rdf-syntax-ns#"
   xmlns:svg="http://www.w3.org/2000/svg"
   xmlns="http://www.w3.org/2000/svg"
   xmlns:sodipodi="http://sodipodi.sourceforge.net/DTD/sodipodi-0.dtd"
   xmlns:inkscape="http://www.inkscape.org/namespaces/inkscape"
   id="svg2"
   version="1.1"
   inkscape:version="0.48.2 r9819"
   width="278"
   height="74.550705"
   xml:space="preserve"
   sodipodi:docname="Vector Smart Object.ai"><metadata
     id="metadata8"><rdf:RDF><cc:Work
         rdf:about=""><dc:format>image/svg+xml</dc:format><dc:type
           rdf:resource="http://purl.org/dc/dcmitype/StillImage" /><dc:title></dc:title></cc:Work></rdf:RDF></metadata><defs
     id="defs6"><clipPath
       clipPathUnits="userSpaceOnUse"
       id="clipPath16"><path
         d="m 0,186.075 693.871,0 L 693.871,0 0,0 0,186.075 z"
         id="path18"
         inkscape:connector-curvature="0" /></clipPath></defs><sodipodi:namedview
     pagecolor="#ffffff"
     bordercolor="#666666"
     borderopacity="1"
     objecttolerance="10"
     gridtolerance="10"
     guidetolerance="10"
     inkscape:pageopacity="0"
     inkscape:pageshadow="2"
     inkscape:window-width="1139"
     inkscape:window-height="867"
     id="namedview4"
     showgrid="false"
     fit-margin-top="0"
     fit-margin-left="0"
     fit-margin-right="0"
     fit-margin-bottom="0"
     inkscape:zoom="0.45311016"
     inkscape:cx="139"
     inkscape:cy="37.275727"
     inkscape:window-x="0"
     inkscape:window-y="0"
     inkscape:window-maximized="0"
     inkscape:current-layer="g10" /><g
     id="g10"
     inkscape:groupmode="layer"
     inkscape:label="Vector Smart Object"
     transform="matrix(1.25,0,0,-1.25,-294.66938,153.57185)"><g
       id="g12"
       transform="matrix(0.32052067,0,0,0.32052067,235.7355,63.216854)"><g
         id="g14"
         clip-path="url(#clipPath16)"><g
           id="g20"
           transform="translate(221.0898,142.0161)"><path
             d="m 0,0 0,-49.943 c 0,-14.932 5.664,-22.526 15.704,-22.526 10.297,0 15.961,7.209 15.961,22.526 l 0,49.943 19.565,0 0,-48.656 c 0,-26.773 -13.515,-39.516 -36.17,-39.516 -21.882,0 -34.754,12.099 -34.754,39.773 L -19.694,0 0,0 z"
             style="fill:#8a1f03;fill-opacity:1;fill-rule:nonzero;stroke:none"
             id="path22"
             inkscape:connector-curvature="0" /></g><g
           id="g24"
           transform="translate(286.8662,72.3789)"><path
             d="m 0,0 c 3.604,-2.188 11.069,-4.763 16.862,-4.763 5.921,0 8.367,2.06 8.367,5.278 0,3.218 -1.931,4.762 -9.268,7.209 C 2.96,12.1 -2.06,19.18 -1.931,26.517 c 0,11.841 10.04,20.723 25.616,20.723 7.336,0 13.901,-1.673 17.762,-3.604 L 37.972,30.12 c -2.832,1.545 -8.238,3.605 -13.644,3.605 -4.763,0 -7.466,-1.931 -7.466,-5.149 0,-2.961 2.446,-4.506 10.169,-7.209 11.971,-4.119 16.99,-10.169 17.119,-19.436 0,-11.713 -9.267,-20.466 -27.288,-20.466 -8.238,0 -15.575,1.931 -20.338,4.505 L 0,0 z"
             style="fill:#8a1f03;fill-opacity:1;fill-rule:nonzero;stroke:none"
             id="path26"
             inkscape:connector-curvature="0" /></g><g
           id="g28"
           transform="translate(342.8574,146.6499)"><path
             d="m 0,0 19.565,0 0,-35.913 0.258,0 c 2.06,2.704 4.634,4.892 7.723,6.436 2.961,1.545 6.564,2.446 10.169,2.446 12.486,0 22.011,-8.624 22.011,-27.546 l 0,-36.814 -19.566,0 0,34.626 c 0,8.238 -2.831,13.901 -10.168,13.901 -5.149,0 -8.367,-3.346 -9.783,-6.822 -0.515,-1.287 -0.644,-2.96 -0.644,-4.376 l 0,-37.329 L 0,-91.391 0,0 z"
             style="fill:#8a1f03;fill-opacity:1;fill-rule:nonzero;stroke:none"
             id="path30"
             inkscape:connector-curvature="0" /></g><g
           id="g32"
           transform="translate(451.7529,84.9932)"><path
             d="m 0,0 c -10.298,0.129 -18.278,-2.316 -18.278,-9.911 0,-5.021 3.346,-7.466 7.722,-7.466 4.892,0 8.882,3.218 10.169,7.208 C -0.129,-9.139 0,-7.98 0,-6.822 L 0,0 z m 19.05,-14.416 c 0,-6.05 0.258,-11.843 0.901,-15.318 l -17.635,0 -1.158,6.307 -0.386,0 c -4.119,-5.019 -10.555,-7.722 -18.021,-7.722 -12.743,0 -20.337,9.267 -20.337,19.307 0,16.348 14.674,24.199 36.942,24.071 l 0,0.901 c 0,3.347 -1.802,8.109 -11.456,8.109 -6.436,0 -13.258,-2.188 -17.377,-4.762 l -3.604,12.614 c 4.377,2.445 13.001,5.535 24.457,5.535 20.98,0 27.674,-12.357 27.674,-27.16 l 0,-21.882 z"
             style="fill:#8a1f03;fill-opacity:1;fill-rule:nonzero;stroke:none"
             id="path34"
             inkscape:connector-curvature="0" /></g><g
           id="g36"
           transform="translate(486.25,146.6499)"><path
             d="m 0,0 19.564,0 0,-35.913 0.258,0 c 2.06,2.704 4.634,4.892 7.723,6.436 2.961,1.545 6.565,2.446 10.169,2.446 12.486,0 22.012,-8.624 22.012,-27.546 l 0,-36.814 -19.566,0 0,34.626 c 0,8.238 -2.832,13.901 -10.169,13.901 -5.149,0 -8.367,-3.346 -9.782,-6.822 -0.516,-1.287 -0.645,-2.96 -0.645,-4.376 l 0,-37.329 L 0,-91.391 0,0 z"
             style="fill:#8a1f03;fill-opacity:1;fill-rule:nonzero;stroke:none"
             id="path38"
             inkscape:connector-curvature="0" /></g><path
           d="m 561.679,118.203 19.565,0 0,-62.944 -19.565,0 0,62.944 z m 20.209,17.506 c 0,-5.406 -4.119,-9.783 -10.555,-9.783 -6.179,0 -10.298,4.377 -10.169,9.783 -0.129,5.664 3.99,9.911 10.298,9.911 6.307,0 10.298,-4.247 10.426,-9.911"
           style="fill:#8a1f03;fill-opacity:1;fill-rule:nonzero;stroke:none"
           id="path40"
           inkscape:connector-curvature="0" /><g
           id="g42"
           transform="translate(638.3945,91.5586)"><path
             d="m 0,0 c 0,1.029 -0.129,2.445 -0.258,3.475 -1.158,5.278 -5.406,9.654 -11.456,9.654 -8.882,0 -13.515,-7.981 -13.515,-17.892 0,-10.683 5.278,-17.378 13.387,-17.378 5.663,0 10.168,3.863 11.327,9.398 C -0.129,-11.328 0,-9.912 0,-8.238 L 0,0 z m 19.565,55.091 0,-72.597 c 0,-7.08 0.257,-14.546 0.515,-18.794 l -17.377,0 -0.901,9.269 -0.257,0 c -3.99,-7.08 -11.585,-10.684 -19.694,-10.684 -14.932,0 -26.903,12.743 -26.903,32.309 -0.129,21.238 13.129,33.467 28.19,33.467 7.723,0 13.772,-2.704 16.604,-7.081 l 0.258,0 0,34.111 19.565,0 z"
             style="fill:#8a1f03;fill-opacity:1;fill-rule:nonzero;stroke:none"
             id="path44"
             inkscape:connector-curvature="0" /></g><path
           d="m 673.662,118.203 19.565,0 0,-62.944 -19.565,0 0,62.944 z m 20.209,17.506 c 0,-5.406 -4.119,-9.783 -10.555,-9.783 -6.178,0 -10.297,4.377 -10.169,9.783 -0.128,5.664 3.991,9.911 10.298,9.911 6.307,0 10.297,-4.247 10.426,-9.911"
           style="fill:#8a1f03;fill-opacity:1;fill-rule:nonzero;stroke:none"
           id="path46"
           inkscape:connector-curvature="0" /><g
           id="g48"
           transform="translate(183.7393,57.1992)"><path
             d="m 0,0 c -8.9,0 -16.114,-7.215 -16.114,-16.114 0,-8.899 7.214,-16.114 16.114,-16.114 8.899,0 16.114,7.215 16.114,16.114 C 16.114,-7.215 8.899,0 0,0"
             style="fill:#231f20;fill-opacity:1;fill-rule:evenodd;stroke:none"
             id="path50"
             inkscape:connector-curvature="0" /></g><g
           id="g52"
           transform="translate(101.709,39.3652)"><path
             d="m 0,0 c -35.307,0 -63.936,28.621 -63.936,63.937 0,35.307 28.629,63.936 63.936,63.936 35.316,0 63.936,-28.629 63.936,-63.936 C 63.936,28.621 35.316,0 0,0 m 75.312,95.41 c 5.904,4.923 9.666,12.329 9.666,20.618 0,14.824 -12.015,26.839 -26.838,26.839 -5.247,0 -10.134,-1.539 -14.274,-4.14 -1.593,4.644 -5.985,7.982 -11.178,7.982 -3.798,0 -7.164,-1.791 -9.333,-4.581 -7.398,2.215 -15.237,3.412 -23.355,3.412 -30.294,0 -56.709,-16.516 -70.794,-41.022 -17.424,-2.124 -30.915,-16.956 -30.915,-34.956 0,-15.921 10.566,-29.376 25.074,-33.732 5.724,-15.615 16.101,-28.98 29.439,-38.457 7.902,-21.447 28.512,-36.738 52.695,-36.738 28.71,0 52.371,21.554 55.719,49.355 12.681,14.383 20.394,33.256 20.394,53.947 0,11.15 -2.25,21.78 -6.3,31.473"
             style="fill:#231f20;fill-opacity:1;fill-rule:evenodd;stroke:none"
             id="path54"
             inkscape:connector-curvature="0" /></g><g
           id="g56"
           transform="translate(16.6333,143.3657)"><path
             d="m 0,0 c 5.065,0 9.17,4.105 9.17,9.17 0,5.065 -4.105,9.171 -9.17,9.171 -5.065,0 -9.17,-4.106 -9.17,-9.171 C -9.17,4.105 -5.065,0 0,0"
             style="fill:#231f20;fill-opacity:1;fill-rule:evenodd;stroke:none"
             id="path58"
             inkscape:connector-curvature="0" /></g><g
           id="g60"
           transform="translate(45.999,103.8867)"><path
             d="m 0,0 c 0,-31.141 25.245,-56.385 56.385,-56.385 31.14,0 56.385,25.244 56.385,56.385 0,31.149 -25.245,56.394 -56.385,56.394 C 25.245,56.394 0,31.149 0,0"
             style="fill:#231f20;fill-opacity:1;fill-rule:nonzero;stroke:none"
             id="path62"
             inkscape:connector-curvature="0" /></g><g
           id="g64"
           transform="translate(94.5356,155.6455)"><path
             d="M 0,0 C 8.127,0.567 16.632,-0.549 24.975,-3.582 16.785,-0.261 8.415,1.116 0.414,0.792 -0.657,0.747 -1.728,0.666 -2.79,0.567 c -8.478,-0.846 -16.443,-3.636 -23.22,-8.1 -0.846,-0.567 -1.674,-1.143 -2.484,-1.755 -4.194,-3.168 -7.848,-7.02 -10.782,-11.483 l -1.8,-2.935 c -1.062,-2.043 -2.43,-4.797 -3.348,-6.903 l 0.081,0.207 c 3.249,7.92 8.487,14.535 15.03,19.557 0.819,0.63 1.656,1.233 2.511,1.809 6.867,4.626 14.94,7.632 23.553,8.721 C -2.178,-0.18 -1.089,-0.072 0,0 M 5.976,3.933 C 12.303,3.313 18.783,0.864 24.975,-3.582 19.278,0.954 13.266,3.483 7.362,4.176 6.57,4.266 5.778,4.329 4.986,4.356 3.339,4.41 1.692,4.32 0.081,4.095 -1.161,3.879 -2.817,3.618 -4.05,3.357 -1.611,3.888 0.9,4.131 3.438,4.086 4.284,4.068 5.13,4.014 5.976,3.933 M 17.109,3.861 c 2.961,-0.594 5.67,-3.024 7.866,-7.443 -1.53,4.302 -3.591,6.606 -5.994,7.101 l -0.045,0.018 -1.503,0.279 -0.63,0.099 C 16.911,3.897 17.01,3.879 17.109,3.861 M 30.222,0.009 c -1.044,0.459 -2.79,-0.666 -5.247,-3.591 3.159,2.655 5.553,3.483 7.164,2.718 -0.576,0.261 -1.341,0.612 -1.917,0.873 m 11.601,-7.038 c -4.5,2.691 -10.188,3.96 -16.848,3.447 7.065,0.135 13.131,-1.494 17.964,-4.5 0.648,-0.405 1.278,-0.828 1.881,-1.287 1.008,-0.747 1.944,-1.566 2.826,-2.448 l -1.449,1.395 -1.044,0.945 c -0.513,0.45 -1.035,0.882 -1.584,1.287 -0.567,0.405 -1.143,0.792 -1.746,1.161 m 4.86,-6.975 c -5.967,4.797 -13.302,8.433 -21.708,10.422 8.451,-2.322 15.831,-6.272 21.834,-11.358 0.801,-0.675 1.584,-1.377 2.34,-2.097 6.048,-5.769 10.476,-12.762 12.915,-20.358 0.306,-0.945 0.576,-1.908 0.819,-2.871 0.72,-2.88 1.161,-5.832 1.305,-8.829 -0.486,5.652 -0.495,5.76 -1.107,8.739 -0.135,0.648 -0.279,1.287 -0.441,1.926 -0.243,0.945 -0.513,1.881 -0.819,2.808 -2.412,7.407 -6.804,14.148 -12.816,19.629 -0.747,0.684 -1.521,1.35 -2.322,1.989 m -2.466,-5.427 c -5.22,6.435 -11.718,11.916 -19.242,15.849 7.164,-4.131 13.329,-9.783 18.252,-16.38 0.666,-0.882 1.296,-1.791 1.917,-2.709 4.932,-7.344 8.397,-15.669 10.125,-24.264 0.216,-1.071 0.405,-2.151 0.567,-3.231 1.287,-8.64 0.81,-17.45 -1.728,-25.704 -0.225,-0.711 -0.459,-1.422 -0.702,-2.123 -0.117,-0.316 -0.225,-0.621 -0.342,-0.937 -3.033,-8.018 -7.776,-14.463 -13.626,-19.106 -0.729,-0.577 -1.476,-1.135 -2.241,-1.656 -1.854,-1.27 -3.798,-2.368 -5.814,-3.304 l 0.27,0.136 c 1.962,0.998 4.545,2.393 6.435,3.518 0.342,0.216 0.684,0.441 1.017,0.675 0.792,0.531 1.557,1.098 2.313,1.692 6.021,4.734 10.872,11.233 13.905,19.251 0.117,0.315 0.225,0.621 0.342,0.936 0.252,0.702 0.486,1.413 0.702,2.125 2.52,8.243 2.898,16.991 1.422,25.541 -0.18,1.071 -0.396,2.133 -0.639,3.195 -1.926,8.487 -5.652,16.677 -10.899,23.85 -0.648,0.9 -1.332,1.782 -2.034,2.646 M 37.773,-3.96 c -2.322,1.386 -2.565,1.539 -4.32,2.448 3.375,-1.719 6.192,-3.609 8.37,-5.517 0.603,-0.369 1.179,-0.756 1.746,-1.161 -0.864,0.756 -1.809,1.503 -2.844,2.25 -0.882,0.603 -2.043,1.422 -2.952,1.98 m 7.047,-5.409 c -0.603,0.459 -1.233,0.882 -1.881,1.287 2.052,-2.034 3.339,-4.077 3.744,-5.922 0.801,-0.639 1.575,-1.305 2.322,-1.989 -0.441,2.07 -1.89,4.347 -4.185,6.624 m 4.329,-7.668 c -0.756,0.72 -1.539,1.422 -2.34,2.097 0.072,-1.494 -0.495,-2.826 -1.782,-3.914 -0.252,-0.199 -0.513,-0.397 -0.81,-0.577 0.702,-0.864 1.386,-1.746 2.034,-2.646 0.324,0.207 0.63,0.423 0.909,0.657 1.44,1.206 2.07,2.709 1.989,4.383 m -4.005,-5.634 c -0.621,0.918 -1.251,1.827 -1.917,2.709 -2.061,-0.945 -4.86,-1.377 -8.082,-1.332 -0.558,0.009 -1.116,0.036 -1.692,0.072 -3.366,0.207 -7.101,0.9 -10.899,2.034 -0.648,0.198 -1.305,0.405 -1.953,0.63 -2.133,0.72 -4.266,1.575 -6.345,2.574 -1.638,0.783 -3.159,1.602 -4.554,2.457 -0.549,0.333 -1.071,0.666 -1.575,1.008 C 5.202,-10.548 2.943,-8.46 1.503,-6.453 1.26,-6.111 1.035,-5.769 0.837,-5.427 -0.315,-3.456 -0.639,-1.584 0,0 c -1.089,-0.072 -2.178,-0.18 -3.249,-0.315 -0.72,-1.773 -0.36,-3.87 0.936,-6.084 0.225,-0.378 0.477,-0.756 0.747,-1.143 1.611,-2.25 4.131,-4.581 7.416,-6.795 0.567,-0.378 1.152,-0.756 1.755,-1.125 1.566,-0.954 3.267,-1.881 5.103,-2.754 2.331,-1.116 4.716,-2.079 7.101,-2.88 0.729,-0.252 1.458,-0.486 2.187,-0.702 4.257,-1.269 8.433,-2.043 12.204,-2.286 0.639,-0.036 1.269,-0.062 1.89,-0.072 3.609,-0.054 6.75,0.432 9.054,1.485 M -2.79,0.567 c 1.062,0.099 2.133,0.18 3.204,0.225 0.27,0.414 0.621,0.801 1.044,1.161 C 2.565,2.88 4.113,3.537 5.976,3.933 5.13,4.014 4.284,4.068 3.438,4.086 1.35,3.636 -0.378,2.907 -1.611,1.863 -2.097,1.458 -2.484,1.026 -2.79,0.567 M 4.986,4.356 C 5.778,4.329 6.57,4.266 7.362,4.176 10.152,4.554 13.5,4.438 17.109,3.861 17.01,3.879 16.911,3.897 16.803,3.915 15.696,4.077 14.211,4.266 13.095,4.383 L 11.286,4.527 C 9.009,4.662 6.885,4.608 4.986,4.356 M 18.936,3.537 18.981,3.519 C 19.17,3.483 19.35,3.447 19.539,3.411 l -0.603,0.126 m 20.538,-101.97 3.168,2.304 c -0.378,-0.297 -0.792,-0.576 -1.224,-0.846 -0.756,-0.594 -1.521,-1.161 -2.313,-1.692 0.126,0.081 0.252,0.153 0.369,0.234 m -2.277,-1.259 c 0.765,0.521 1.512,1.079 2.241,1.656 -4.113,-1.882 -9.693,-2.745 -16.128,-2.656 -1.107,0.018 -2.232,0.063 -3.384,0.135 -6.714,0.423 -14.166,1.8 -21.744,4.069 -1.296,0.395 -2.601,0.809 -3.897,1.25 -4.248,1.431 -8.505,3.15 -12.654,5.13 -3.276,1.566 -6.309,3.213 -9.099,4.914 -1.08,0.666 -2.124,1.332 -3.123,2.007 -5.859,3.942 -10.35,8.1 -13.221,12.106 -0.495,0.684 -0.936,1.367 -1.332,2.043 -0.963,1.655 -1.647,3.267 -2.007,4.814 l 0.954,-3.618 c 0.378,-1.251 0.954,-2.538 1.719,-3.852 0.387,-0.648 0.819,-1.314 1.287,-1.971 2.781,-3.869 7.119,-7.884 12.771,-11.691 0.963,-0.648 1.971,-1.295 3.015,-1.935 2.691,-1.647 5.625,-3.23 8.784,-4.743 4.005,-1.916 8.109,-3.572 12.213,-4.958 1.26,-0.424 2.52,-0.829 3.771,-1.206 7.317,-2.188 14.508,-3.52 20.988,-3.924 1.116,-0.072 2.205,-0.117 3.267,-0.136 6.219,-0.09 11.61,0.747 15.579,2.566 m -34.596,-8.209 c 1.278,-0.09 2.988,-0.189 4.266,-0.234 -0.603,0.009 -1.233,0.036 -1.863,0.072 -3.915,0.252 -8.262,1.062 -12.69,2.376 -0.756,0.235 -1.512,0.477 -2.277,0.729 -2.475,0.846 -4.959,1.845 -7.38,2.997 -1.908,0.918 -3.681,1.872 -5.31,2.871 -0.63,0.388 -1.242,0.775 -1.827,1.17 -0.864,0.585 -1.692,1.179 -2.448,1.782 l 0.828,-0.638 c 2.538,-1.837 2.592,-1.873 4.023,-2.773 l 0.819,-0.504 c 1.377,-0.828 2.88,-1.637 4.482,-2.403 2.178,-1.035 4.41,-1.935 6.633,-2.69 0.684,-0.235 1.368,-0.451 2.052,-0.658 2.736,-0.818 5.454,-1.422 8.028,-1.782 0.801,-0.099 1.863,-0.243 2.664,-0.315 m 58.887,73.539 -0.027,0.072 c 0.144,-0.45 0.27,-0.891 0.36,-1.332 0.306,-0.927 0.576,-1.863 0.819,-2.808 -0.045,0.18 -0.09,0.369 -0.135,0.549 l -1.017,3.519 m 1.395,-5.904 c -0.243,0.963 -0.513,1.926 -0.819,2.871 0.144,-2.834 -0.936,-5.373 -3.384,-7.425 -0.468,-0.396 -0.981,-0.765 -1.53,-1.107 0.243,-1.062 0.459,-2.124 0.639,-3.195 0.576,0.36 1.098,0.738 1.593,1.143 2.529,2.133 3.654,4.77 3.501,7.713 m -7.047,-9.9 c -0.162,1.08 -0.351,2.16 -0.567,3.231 -3.906,-1.791 -9.225,-2.619 -15.345,-2.52 -1.053,0.018 -2.124,0.054 -3.222,0.126 -6.381,0.405 -13.473,1.71 -20.682,3.87 -1.233,0.369 -2.475,0.765 -3.708,1.188 -4.05,1.368 -8.091,2.997 -12.042,4.887 -3.114,1.485 -6.003,3.051 -8.649,4.671 -1.035,0.63 -2.025,1.26 -2.979,1.908 -5.571,3.753 -9.846,7.704 -12.573,11.511 -0.468,0.657 -0.891,1.305 -1.269,1.953 -2.196,3.753 -2.817,7.299 -1.602,10.305 -0.855,-0.576 -1.692,-1.179 -2.511,-1.809 -1.26,-3.114 -0.621,-6.804 1.656,-10.692 0.396,-0.675 0.828,-1.341 1.314,-2.025 2.835,-3.951 7.272,-8.055 13.05,-11.943 0.99,-0.675 2.025,-1.332 3.087,-1.98 2.745,-1.683 5.751,-3.312 8.982,-4.851 4.095,-1.953 8.289,-3.654 12.483,-5.067 1.287,-0.441 2.574,-0.846 3.852,-1.233 7.479,-2.241 14.841,-3.599 21.465,-4.014 1.134,-0.072 2.25,-0.117 3.339,-0.134 6.354,-0.1 11.862,0.755 15.921,2.618 m -84.33,40.878 c 0.81,0.612 1.638,1.188 2.484,1.755 0.513,0.774 1.179,1.512 1.989,2.196 0.459,0.387 0.954,0.747 1.494,1.08 l -3.213,-2.214 c -0.243,-0.171 -0.468,-0.351 -0.693,-0.531 -0.837,-0.711 -1.53,-1.476 -2.061,-2.286 m 89.478,-61.344 0.855,2.592 c -0.594,-1.962 -1.791,-3.744 -3.636,-5.291 -0.567,-0.478 -1.179,-0.919 -1.836,-1.332 -0.216,-0.712 -0.45,-1.423 -0.702,-2.125 -0.117,-0.315 -0.225,-0.621 -0.342,-0.936 0.657,0.414 1.269,0.856 1.836,1.332 1.638,1.377 2.763,2.934 3.411,4.635 l 0.414,1.125 m -7.92,-8.298 c 0.117,0.316 0.225,0.621 0.342,0.937 0.243,0.701 0.477,1.412 0.702,2.123 -4.689,-2.151 -11.07,-3.141 -18.414,-3.024 -1.26,0.018 -2.547,0.072 -3.852,0.153 -7.659,0.486 -16.173,2.053 -24.813,4.644 -1.485,0.442 -2.97,0.918 -4.455,1.422 -4.851,1.639 -9.702,3.6 -14.445,5.86 -3.735,1.781 -7.2,3.662 -10.377,5.606 -1.233,0.757 -2.43,1.521 -3.573,2.286 -6.678,4.5 -11.808,9.243 -15.084,13.815 -0.558,0.783 -1.071,1.566 -1.521,2.34 -2.637,4.5 -3.375,8.766 -1.917,12.366 l -0.081,-0.207 -0.864,-2.277 -0.396,-1.143 c -1.152,-3.474 -0.351,-7.515 2.142,-11.781 0.45,-0.765 0.954,-1.548 1.521,-2.331 3.276,-4.572 8.406,-9.324 15.093,-13.824 1.152,-0.773 2.34,-1.539 3.573,-2.295 3.177,-1.944 6.651,-3.825 10.395,-5.606 4.734,-2.269 9.594,-4.222 14.445,-5.869 1.485,-0.503 2.979,-0.981 4.455,-1.421 8.658,-2.593 17.172,-4.167 24.831,-4.645 1.314,-0.09 2.601,-0.135 3.861,-0.153 7.353,-0.117 13.734,0.873 18.432,3.024 m -17.919,57.636 c -2.484,7.002 -5.904,13.113 -10.17,17.712 3.663,-4.581 6.498,-10.665 8.478,-17.64 0.576,-0.036 1.134,-0.063 1.692,-0.072 m 4.779,-28.161 c -0.126,8.856 -1.431,17.541 -3.834,25.299 -0.621,0.01 -1.251,0.036 -1.89,0.072 1.863,-7.731 2.718,-16.407 2.502,-25.245 1.098,-0.072 2.169,-0.108 3.222,-0.126 m -4.23,-29.439 c 2.673,8.262 4.041,17.226 4.221,26.11 -1.089,0.017 -2.205,0.062 -3.339,0.134 -0.486,-8.874 -2.043,-17.829 -4.734,-26.091 1.305,-0.081 2.592,-0.135 3.852,-0.153 M 23.31,-100.692 c 4.437,4.42 8.361,10.719 11.322,18.738 -1.26,0.018 -2.547,0.063 -3.861,0.153 -2.952,-8.018 -6.705,-14.328 -10.845,-18.756 1.152,-0.072 2.277,-0.117 3.384,-0.135 m -16.29,-7.443 c 5.04,-0.062 10.053,1.953 14.598,5.877 -1.062,0.019 -2.151,0.064 -3.267,0.136 -4.23,-3.951 -8.82,-5.994 -13.347,-5.941 0.63,-0.036 1.26,-0.063 1.863,-0.072 l 0.153,0 m 15.534,88.947 c 1.314,6.363 2.169,11.763 2.421,15.606 -0.945,-3.618 -2.466,-8.802 -4.374,-14.976 0.648,-0.225 1.305,-0.432 1.953,-0.63 M 16.02,-45.459 c 2.376,8.442 4.437,16.56 5.976,23.661 -0.729,0.216 -1.458,0.45 -2.187,0.702 -2.16,-6.903 -4.734,-14.868 -7.497,-23.175 1.233,-0.423 2.475,-0.819 3.708,-1.188 M 7.029,-74.097 c 2.871,8.235 5.625,16.956 8.082,25.461 -1.278,0.387 -2.565,0.792 -3.852,1.233 -2.808,-8.397 -5.778,-17.045 -8.685,-25.272 1.485,-0.504 2.97,-0.98 4.455,-1.422 m -8.847,-22.391 c 2.25,4.788 4.887,11.303 7.758,19.332 -1.476,0.44 -2.97,0.918 -4.455,1.421 -2.862,-8.028 -5.301,-14.616 -7.2,-19.503 1.296,-0.441 2.601,-0.855 3.897,-1.25 m -5.868,-9.199 c 1.17,0.577 2.907,3.151 5.049,7.489 -1.251,0.377 -2.511,0.782 -3.771,1.206 -1.764,-4.464 -2.988,-7.2 -3.555,-7.966 0.765,-0.252 1.521,-0.494 2.277,-0.729 m -0.648,-0.089 0.243,-0.028 c -0.684,0.207 -1.368,0.423 -2.052,0.658 l -0.09,-0.028 0.963,-0.314 0.936,-0.288 m 18.036,92.249 c 5.193,4.653 10.413,8.127 15.273,9.945 -5.418,-1.458 -11.169,-4.59 -16.848,-8.937 0.504,-0.342 1.026,-0.675 1.575,-1.008 M -8.379,-34.713 c 4.932,7.308 10.413,13.923 15.984,19.251 -0.603,0.369 -1.188,0.747 -1.755,1.125 -6.057,-5.013 -11.961,-11.358 -17.208,-18.468 0.954,-0.648 1.944,-1.278 2.979,-1.908 m -13.869,-26.496 c 3.087,8.146 7.254,16.245 12.042,23.724 -1.062,0.648 -2.097,1.305 -3.087,1.98 -5.067,-7.299 -9.414,-15.291 -12.528,-23.418 1.143,-0.765 2.34,-1.529 3.573,-2.286 m -5.22,-23.985 c 0.009,5.769 1.332,12.871 4.113,20.934 -1.233,0.756 -2.421,1.522 -3.573,2.295 -2.772,-8.082 -3.933,-15.282 -3.663,-21.222 0.999,-0.675 2.043,-1.341 3.123,-2.007 m 4.815,-13.896 c -2.799,2.314 -4.428,6.372 -4.752,11.799 -1.044,0.64 -2.052,1.287 -3.015,1.935 0.621,-5.625 2.664,-9.936 5.94,-12.564 0.585,-0.395 1.197,-0.782 1.827,-1.17 M 1.503,-6.453 c 7.677,2.52 15.678,3.591 23.472,2.871 -8.037,1.089 -16.263,0.36 -24.138,-1.845 0.198,-0.342 0.423,-0.684 0.666,-1.026 m -25.434,-14.841 c 6.561,5.913 14.238,10.638 22.365,13.752 -0.27,0.387 -0.522,0.765 -0.747,1.143 -8.343,-2.789 -16.2,-7.245 -22.887,-12.942 0.378,-0.648 0.801,-1.296 1.269,-1.953 m -16.974,-23.814 c 3.222,8.028 8.298,15.354 14.562,21.546 -0.486,0.684 -0.918,1.35 -1.314,2.025 -6.39,-6.012 -11.538,-13.23 -14.769,-21.231 0.45,-0.774 0.963,-1.557 1.521,-2.34 m -2.907,-25.973 c -1.422,7.001 -0.936,14.822 1.791,22.94 -0.567,0.783 -1.071,1.566 -1.521,2.331 -2.718,-8.127 -3.141,-16.046 -1.602,-23.228 0.396,-0.676 0.837,-1.359 1.332,-2.043 m 5.697,-13.32 c -2.268,3.221 -3.978,6.83 -5.076,10.736 -0.468,0.657 -0.9,1.323 -1.287,1.971 0.873,-2.996 2.097,-5.85 3.654,-8.504 l 0.126,-0.217 c 0.756,-1.206 1.773,-2.816 2.583,-3.986"
             style="fill:#ffffff;fill-opacity:1;fill-rule:nonzero;stroke:none"
             id="path66"
             inkscape:connector-curvature="0" /></g></g></g></g></svg>